<svg xmlns="http://www.w3.org/2000/svg" viewBox="0 0 289.17 124.97">
    <g id="Layer_2" data-name="Layer 2">
        <g id="Layer_1-2" data-name="Layer 1">
            <path fill="#ffffff"
                d="M182.71,9.39v77.7h-18.6V74.59a37,37,0,0,1-29.74,14.12c-23.92,0-41.7-19.11-41.7-44.36S110.45,0,134.37,0a37,37,0,0,1,29.74,14.12V9.39a9.3,9.3,0,0,1,9.3-9.31h0A9.3,9.3,0,0,1,182.71,9.39ZM164.1,43.8A26.08,26.08,0,0,0,137.3,18c-14.75.36-25.52,11.69-25.52,26.4,0,15,11.13,26.42,26.25,26.42S164.38,59,164.1,43.8Z" />
            <path fill="#ffffff"
                d="M199,125V9.39a9.3,9.3,0,0,1,9.3-9.31h0a9.3,9.3,0,0,1,9.3,9.31v4.53a.13.13,0,0,0,.23.08c7-8.8,17.35-14,29.68-14,23.75,0,41.69,19.1,41.69,44.35s-17.94,44.36-41.69,44.36c-12.33,0-22.7-5.2-29.68-14a.13.13,0,0,0-.23.08V125Zm70.86-82.7c-.87-12.35-9.46-21.94-21.33-23.94-17.57-3-33.06,12.23-30.67,29.9a25.62,25.62,0,0,0,23,22.38C257.14,72.33,271,58.62,269.83,42.27Z" />
            <path fill="#ffffff"
                d="M8.6,76.3,74.38,10.52a7.59,7.59,0,0,0-7.52-8.58H2.74V20.59l42.36,0L2.22,63.44A7.57,7.57,0,0,0,8.6,76.3Z" />
            <path fill="#ffffff"
                d="M82.92,14.9a7.55,7.55,0,0,0-7-2l-65,65.05a7.59,7.59,0,0,0,7.41,9.2H82.4V68.46L40,68.48,82.92,25.61a7.57,7.57,0,0,0,0-10.71Z" />
        </g>
    </g>
</svg>